<svg width="40" height="40" viewBox="0 0 40 40" fill="none" xmlns="http://www.w3.org/2000/svg">
<path d="M20.9674 1.73193L16.5988 8.33209L18.9204 8.62373C18.2001 10.9776 18.0536 12.5986 18.2263 15.8206C19.3308 15.6464 20.2232 15.5843 21.3971 15.9292C20.6254 13.0511 20.7061 12.0677 21.0158 8.91607L23.5644 9.09397L20.9674 1.73193ZM38.0363 1.90459L29.5707 4.25068L31.2047 6.27998C27.3365 8.70334 24.9288 10.6197 23.0218 15.9022C24.0532 15.8903 25.217 16.1304 26.4729 16.6056C26.9204 13.1161 29.1089 10.6572 32.6684 8.09639L34.2296 10.0351L38.0363 1.90459ZM1.81958 2.08506L6.96638 10.0917L8.45731 7.84865C11.235 10.383 12.9999 13.8119 12.9345 16.2416C14.3851 15.5622 15.2725 15.4973 16.82 15.9465C16.1868 13.5087 13.4156 7.45256 9.66075 5.86029L10.9553 3.82615L1.81958 2.08506ZM23.3912 18.8559C22.9787 18.8653 22.5936 19.0446 22.068 19.6054L21.5551 20.1499L21.0229 19.6249C20.4458 19.0562 19.9904 18.8991 19.5288 18.9194C19.0672 18.9397 18.5245 19.1825 17.9175 19.6738L17.4318 20.0668L16.9704 19.6469C16.275 19.0179 15.6825 18.8314 15.1149 18.8607C14.7018 18.8821 14.2731 19.0377 13.8454 19.3099L17.0458 25.0669C18.2532 25.8053 20.7204 26.083 22.4169 25.228L25.5102 19.498C24.9235 19.2588 24.3961 19.0135 23.9404 18.9194C23.7754 18.8853 23.6224 18.8604 23.4741 18.8559C23.4465 18.8551 23.4186 18.8553 23.3912 18.8559ZM16.3623 26.3706C14.9533 27.3661 13.822 29.083 13.3838 31.5976C12.9592 34.0348 13.6283 35.6809 14.8122 36.8027C15.9961 37.9246 17.7733 38.5008 19.5778 38.4774C21.3825 38.454 23.1822 37.8282 24.3922 36.6855C25.6024 35.5428 26.2867 33.9179 25.8986 31.5928C25.4972 29.1899 24.4611 27.5187 23.1493 26.5073C20.9242 27.6836 18.142 27.4336 16.3623 26.3706Z" fill="#FF0000"/>
</svg>
